<?xml version="1.0" encoding="UTF-8" standalone="no"?><!DOCTYPE svg PUBLIC "-//W3C//DTD SVG 1.1//EN" "http://www.w3.org/Graphics/SVG/1.1/DTD/svg11.dtd"><svg width="100%" height="100%" viewBox="0 0 320 155" version="1.1" xmlns="http://www.w3.org/2000/svg" xmlns:xlink="http://www.w3.org/1999/xlink" xml:space="preserve" style="fill-rule:evenodd;clip-rule:evenodd;stroke-linejoin:round;stroke-miterlimit:1.41421;"><path d="M158.6,131l-2.3,-0.3c-0.8,0 -1.3,0 -1.8,0.4c-0.4,0.4 -0.7,0.8 -0.7,1.3c0,0.5 0.2,0.8 0.5,1c0.3,0.4 0.7,0.7 1.2,1c0.5,0 1,0.3 2,0.5l2.6,1c0.8,0.3 1.4,0.8 2,1.5c0.6,0.7 0.7,1.5 0.7,2.5c0,1 -0.3,2 -0.8,2.6c-0.5,0.6 -1.4,1.3 -2.3,1.7c-1,0.5 -2,0.7 -3.3,0.7c-1.3,0 -2.5,-0.2 -3.8,-0.7c-1.2,-0.5 -2.3,-1 -3.2,-2l1.3,-2.6c0.8,0.8 1.8,1.4 2.8,1.8c1,0.4 2,0.7 3,0.7c0.8,0 1.5,-0.3 2,-0.6c0.5,-0.3 0.8,-0.8 0.8,-1.4c0,-0.5 -0.2,-1 -0.5,-1.2c-0.3,-0.3 -0.7,-0.6 -1.2,-0.7l-2,-0.5c-1,-0.3 -2,-0.6 -2.6,-1c-0.6,-0.4 -1.3,-0.8 -1.8,-1.4c-0.5,-0.5 -0.8,-1.4 -0.8,-2.4c0,-1 0.3,-1.8 0.8,-2.5c0.5,-0.6 1.2,-1.2 2.2,-1.6c1,-0.4 2,-0.6 3.2,-0.6c1,0 2,0.2 3.2,0.5c1,0.3 2,0.7 2.8,1.3l-1.3,2.8c-1,-0.6 -1.8,-1 -2.7,-1.3l0,-0.5Zm20.9,-3l12,0l0,3l-8.8,0l0,4l8,0l0,2.8l-8,0l0,4l9.2,0l0,3l-12.4,0l0,-16.8l0,0Zm41.9,16.6l-1.4,-3.6l-8,0l-1.6,3.6l-3.4,0l7.3,-16.5l3.3,0l7,16.6l-3.2,0l0,-0.1Zm-8.4,-6.2l5.8,0l-3,-7l-2.8,7Zm37.8,6.2l-2.8,-5l-4.3,0l0,5l-3,0l0,-16.6l6.8,0c2,0 3.8,0.5 5,1.5c1,1 1.6,2.4 1.6,4.2c0,1.3 -0.2,2.4 -0.7,3.3c-0.6,1 -1.4,1.6 -2.4,2l3.5,5.5l-3.7,0l0,0.1Zm-7,-7.7l3.6,0c1.2,0 2,-0.4 2.7,-1c0.7,-0.4 1,-1.2 1,-2.2c0,-1 -0.3,-1.8 -1,-2.3c-0.5,-0.5 -1.4,-0.8 -2.6,-0.8l-3.7,0l0,6.3Zm37.2,-5.6c-0.8,-0.4 -1.6,-0.6 -2.4,-0.6c-1,0 -2,0.2 -2.8,0.7c-0.8,0.5 -1.5,1.2 -2,2c-0.5,1 -0.7,1.8 -0.7,2.8c0,1 0.3,2 0.8,2.8c0.5,1 1.2,1.5 2,2c0.8,0.5 1.8,0.7 2.8,0.7c0.8,0 1.6,-0.2 2.4,-0.5c0.8,-0.3 1.5,-0.8 2,-1.4l2,2c-1,1 -2,1.7 -3,2.2c-1,0.5 -2.3,0.8 -3.5,0.8c-1.6,0 -3,-0.4 -4.3,-1c-1.3,-1 -2.4,-2 -3,-3.2c-0.6,-1.2 -1.2,-2.7 -1.2,-4.3c0,-1.6 0.4,-3 1.2,-4.3c0.8,-1.3 1.8,-2.3 3,-3c1.4,-0.7 3,-1 4.5,-1c1.2,0 2.3,0 3.5,0.6c1,0.5 2,1 3,2l-2,2.3c-0.7,-0.8 -1.4,-1.3 -2.2,-1.7l-0.1,0.1Zm20.2,-3.3l3,0l0,7l8.3,0l0,-7l3,0l0,16.6l-3,0l0,-6.6l-8.2,0l0,6.6l-3,0l0,-16.6l-0.1,0Z" style="fill:#32151f;fill-rule:nonzero;"/><g><path d="M198,26c0,-3.2 -0.5,-6 -1.4,-8.5c-1,-3 -2.8,-5.5 -5.4,-7.3c-2.6,-1.8 -5.4,-3 -8.4,-3.5c-1.4,-1.2 -2.6,-2.2 -3.7,-2.7c-2.7,-1.6 -5,-2.4 -6.5,-2.4c-1,0 -2,0.4 -2.8,1.2c-0.8,0.8 -1.4,2 -2,4c-0.5,1.3 -0.7,2.7 -0.7,4c0,1.8 0.3,3 1,4c0.5,1 1.2,1.6 2,1.6c0.4,0 0.8,-0.4 1,-1c0.8,-3 3.2,-4.3 7.2,-4.3c1,0 1.5,0 2,0.2c2.2,3.5 3.2,7.8 3.2,13c0,11.5 -5,25.5 -14.7,42c-9.8,16.7 -21,31.3 -33.5,44c-12.6,12.7 -22.2,19.2 -29,19.5c-0.4,-2 -0.6,-4 -0.6,-6.4c0,-7 2,-15 6,-24c3.8,-9.2 10,-18.6 18.4,-28.5c0.4,-0.5 0,-1.7 -1.4,-3.7c-1.3,-2 -3,-3.8 -5,-5.5c-2,-1.7 -3.8,-2.6 -5.4,-2.6c-1.2,0 -2,0.4 -2.8,1.3c-3.4,1.6 -9.5,6 -18.2,13.2c-8.7,7.2 -17.7,15.4 -27,24.5c4.7,-11.8 8.7,-23 11.6,-34c3,-11 4.5,-20.2 4.5,-28c0,-6.8 -1,-11.8 -3.4,-15.3c-2,-3.2 -5.7,-5.6 -10.8,-7c-2,-1.7 -4.2,-3 -6.2,-4.2c-2,-1 -3.6,-1.5 -4.7,-1.3c-6.4,2 -14.3,8.2 -23.7,18.8c-9.4,10.7 -17.6,22.4 -24.6,35.3c-7,13 -10.5,23.5 -10.5,31.7c0,3 0.6,5.7 1.7,7.8c1.8,3.3 4,5.7 7,7.3c3,1.7 5.8,2.5 8.2,2.5c0.7,0 1.3,0 1.8,-0.3c0.5,-0.2 0.7,-0.4 0.7,-0.7c0,-0.3 -0.3,-0.7 -0.8,-1c-3.8,-3.3 -5.7,-8 -5.7,-14.4c0,-8 3,-18 8.6,-29c6,-11.4 12.8,-21.6 21,-31c8.3,-9.2 15.7,-15 22.3,-17.6c3,4.8 4.5,11.2 4.5,19.2c0,11.4 -2.6,24.7 -8,40c-5.2,15.3 -11.2,29.3 -18,42c-6.6,12.5 -11.6,20 -14.8,22.4c-0.3,0.2 -0.4,0.5 -0.4,1c0,0.8 0.6,2 1.8,3.2c1.2,1.4 2.6,2.6 4,3.7c1.6,1 3,1.5 3.8,1.5c0.4,0 0.7,0 1,-0.3l0.4,-0.5l0.3,0l0.8,-1.4c1,-1 2.2,-2.7 3.8,-5c8,-10.5 17.3,-21.2 27.5,-32c10.3,-10.7 19.6,-19.3 27.8,-26c-3.2,9.6 -4.8,19.3 -4.8,29c0,6 0.6,11.2 1.8,16c1.2,4.6 2.8,8.3 5,11c2,2.7 4.4,4 7,4c2,0 3.8,-0.4 5.5,-1.4l0.2,0c6.3,-2.6 16.2,-11.2 29.7,-26c13.4,-14.6 25.4,-30.7 36,-48.2c10.4,-17.3 15.7,-32 15.7,-44l0.1,0.1Zm-0.7,37.4c0,1 0.6,1.6 2,2.2c1,0.6 2.4,1 3.7,1l1.5,-0.3c0.7,-0.3 1.8,-1.2 3.3,-3c1.5,-1.6 2.8,-3.4 4,-5.3c1,-2 1.7,-3.5 1.6,-4.7c0,-2 -0.6,-3.6 -1.3,-5.3c-0.7,-1.6 -1.5,-2.8 -2.5,-3.7c-1,-1 -1.8,-1.3 -2.5,-1.3c-0.7,0 -1,0.3 -1.3,1c-1.6,5.6 -4.4,11.7 -8,18.5c-0.3,0.2 -0.4,0.5 -0.4,1l-0.1,-0.1Z" style="fill:#881d3a;fill-rule:nonzero;"/><path d="M302,73.3c-0.4,-0.6 -1,-1 -1.4,-1c-0.5,0 -1,0.4 -1.7,1l-6.6,8c-4.8,6.4 -9.2,11.6 -13.2,16c-4,4 -8.7,7.5 -14,10c1,-4.5 2.6,-9 4.6,-13.8c0.4,0.4 0.8,0.6 1.2,0.6c1,0 3,-1.2 6,-4c3,-2.5 6,-5.4 8.7,-8.5c2.7,-3 4,-5 4.2,-6c0,-1 -0.8,-2 -2.3,-3.8c0,-0.4 -0.6,-1.4 -2.2,-3c-1.6,-1.8 -3.2,-3.2 -5,-4.4c-1.7,-1.2 -3,-1.6 -3.6,-1c-3.2,2.3 -6,4.8 -8.5,7.5c-3.2,2.2 -7.3,6 -12.6,11.4c-5.6,5.7 -11,11.8 -16.3,18c2.2,-5.4 5.2,-11 9,-17c3.8,-6 7,-10.4 9.6,-13c0.4,-0.4 0,-1.2 -1,-2.5c-1,-1.2 -2.4,-2.4 -4,-3.4c-1.7,-1 -3,-1.6 -4,-1.6c-0.4,0 -0.8,0 -1.2,0.4l0,0.3c-2,1.2 -6,5 -12.7,11.3c-6.6,6.3 -12.2,12 -16.6,16.7c4,-8.5 8,-15.5 12.5,-21c0.4,-0.5 0,-1.3 -1.4,-2.5c-1.3,-1.2 -3,-2.3 -4.7,-3.4c-1.7,-1 -2.7,-1.5 -3,-1.4c-1,0.3 -2.7,2.7 -5.5,7.2c-3,1.8 -6.6,5 -11.3,9.2c-4.6,4.3 -9.3,9 -14,14c3,-7.7 7,-14.3 11.6,-20c0.4,-0.5 0,-1.2 -1,-2c-1,-1 -2.3,-2 -3.7,-2.7c-1.3,-0.8 -2.3,-1 -2.6,-1c-1,0.4 -3.4,3.6 -7.3,9.5c-3.8,6 -7.3,12 -10.5,18.2c-3.2,6.2 -4.7,10.2 -4.4,12c0.4,2.3 1.6,4.3 3.7,6.2c2,2 4.2,3.2 6.3,3.8c0,0 0.2,0 0.4,-0.3c0,-0.2 2,-3.7 6.2,-10.3c4,-6.6 8.6,-13 13.5,-18.8c2.8,-3.3 5.3,-5.8 7.7,-7.7c-2.5,4.5 -5,9 -7,13.8c-3.4,7 -5,11.5 -4.7,13.5c0.2,1.4 1,3 2.3,4.4c1.3,1.4 2.7,2.6 4.3,3.7c1.5,1 2.7,1.6 3.4,1.8l0.4,-1c6.3,-11.3 14.6,-21.7 24.8,-31.2c-5.5,10 -8.2,17 -8.2,21.2c0,1 0.2,1.7 0.5,2.4c0.7,1.2 2,2.6 4,4c2,1.6 4,2.8 5.7,3.7c1.8,1 2.6,1.2 2.2,0.6l0.2,0c0,-0.3 1.8,-3.8 5.5,-10.4c3.8,-6.7 8,-13 12.5,-19l0.2,-0.2c-1,2 -2,3.8 -2.6,5.7c-2,5 -2.8,9.2 -2.8,12.5c0,1.2 0.2,2.2 0.5,3c0.8,2 2.2,3.5 4,5c2,1.4 4,2.4 6,3c1.8,0.6 2.7,0.7 2.6,0.2c2.3,-1 7.6,-5.8 15.8,-14.6c8.4,-8.8 15.5,-17 21.5,-24.8c0.5,-0.6 0.8,-1.4 0.8,-2.6c0,-0.6 0,-1.3 -0.4,-2l-0.4,0.1Zm-17.5,0c-1,2.6 -2.7,5.2 -4.7,7.7c-2,2.5 -4.2,4.5 -6.7,6c3.8,-6.6 7.6,-11.2 11.5,-13.7l-0.1,0Z" style="fill:#881d3a;fill-rule:nonzero;"/></g></svg>